<svg width="22" height="20" viewBox="0 0 22 20" fill="none" xmlns="http://www.w3.org/2000/svg">
<path opacity="0.2" d="M20.9998 20H0.999844C0.824819 19.9989 0.653135 19.952 0.501953 19.8638C0.350771 19.7756 0.225385 19.6492 0.138329 19.4974C0.0512723 19.3456 0.00559459 19.1735 0.00586053 18.9985C0.00612647 18.8235 0.0523267 18.6516 0.139844 18.5C0.963594 17.075 1.99984 13.4762 1.99984 9C1.99984 6.61305 2.94806 4.32387 4.63588 2.63604C6.32371 0.948211 8.6129 0 10.9998 0C13.3868 0 15.676 0.948211 17.3638 2.63604C19.0516 4.32387 19.9998 6.61305 19.9998 9C19.9998 13.4775 21.0373 17.075 21.8623 18.5C21.95 18.6518 21.9962 18.8239 21.9963 18.9991C21.9965 19.1744 21.9506 19.3466 21.8632 19.4985C21.7759 19.6504 21.6501 19.7767 21.4986 19.8647C21.3471 19.9527 21.1751 19.9994 20.9998 20Z" fill="white"/>
</svg>
